# xmcd
#
# Track frame offsets: 
#        150
#        17771
#        30961
#        49666
#        65275
#        82474
#        108541
#        132681
#        144573
#        170374
#        188324
#        205801
#        226892
#        243993
#        266479
#        286357
#        310775
#        324018
#
# Disc length: 4553 seconds
#
# Revision: 2
# Processed by: cddbd v1.5.2PL0 Copyright (c) Steve Scherf et al.
# Submitted via: ExactAudioCopy v0.99pb4
#
DISCID=f311c712
DTITLE=А.Полотно И Ф.Карманов - Поцелуй Меня, Удача!
DYEAR=2007
DGENRE=Chanson
TTITLE0=Поцелуй Меня, Удача!
TTITLE1=Гоп-Стоп, Сало!
TTITLE2=Жёнушка
TTITLE3=Денежки
TTITLE4=Истина В Вине
TTITLE5=Алладин
TTITLE6=Секретарша
TTITLE7=Нога
TTITLE8=На Рыбалку
TTITLE9=Погожий Денёк
TTITLE10=Чардаш
TTITLE11=Кабакам - Кабацкий Дым
TTITLE12=Мундирчик
TTITLE13=По Дону
TTITLE14=К Тебе
TTITLE15=Колечко
TTITLE16=Добрый Вечер
TTITLE17=Поцелуй Меня, Удача (Бонус-Караоке)
EXTD=
EXTT0=
EXTT1=
EXTT2=
EXTT3=
EXTT4=
EXTT5=
EXTT6=
EXTT7=
EXTT8=
EXTT9=
EXTT10=
EXTT11=
EXTT12=
EXTT13=
EXTT14=
EXTT15=
EXTT16=
EXTT17=
PLAYORDER=
